<svg xmlns="http://www.w3.org/2000/svg" viewBox="0 0 64 64">
  <rect x="5" y="5" width="54" height="54" rx="16" fill="#ffffff" stroke="#241b17" stroke-width="3"/>
  <path d="M32 35v12" fill="none" stroke="#241b17" stroke-width="3" stroke-linecap="round"/>
  <path d="M31 40c-9-5-12-1-15 4 7 2 12 1 15-4z" fill="#87bd98" stroke="#241b17" stroke-width="3" stroke-linejoin="round"/>
  <path d="M33 38c9-5 13-1 16 4-8 3-13 2-16-4z" fill="#87bd98" stroke="#241b17" stroke-width="3" stroke-linejoin="round"/>
  <rect x="26" y="9" width="12" height="12" rx="3" fill="#f2795b" stroke="#241b17" stroke-width="3"/>
  <rect x="14" y="22" width="12" height="12" rx="3" fill="#f2795b" stroke="#241b17" stroke-width="3"/>
  <rect x="38" y="22" width="12" height="12" rx="3" fill="#f2795b" stroke="#241b17" stroke-width="3"/>
  <rect x="26" y="22" width="12" height="12" rx="3" fill="#ffed4a" stroke="#241b17" stroke-width="3"/>
  <rect x="20" y="47" width="24" height="9" rx="2" fill="#123b66" stroke="#241b17" stroke-width="3"/>
  <path d="M28 47v9m8-9v9" fill="none" stroke="#241b17" stroke-width="3" stroke-linecap="round"/>
</svg>
